<svg width="16" height="16" viewBox="0 0 16 16" fill="none" xmlns="http://www.w3.org/2000/svg">
<g clip-path="url(#clip0_255_1499)">
<path d="M9.53667 1.164C9.96292 1.20059 10.362 1.38863 10.6615 1.69406C10.9611 1.9995 11.1414 2.40212 11.1697 2.829C11.2493 3.93567 11.3333 5.65767 11.3333 8C11.3333 10.8683 11.2703 12.9453 11.2253 14.0607C11.2148 14.3143 11.1063 14.5539 10.9226 14.7291C10.739 14.9043 10.4945 15.0014 10.2407 15H2.096C1.84141 15.0011 1.59633 14.9034 1.41231 14.7274C1.2283 14.5515 1.11969 14.311 1.10933 14.0567C1.06433 12.9153 1 10.7943 1 8C1 5.714 1.086 3.97267 1.16667 2.84433C1.19485 2.41388 1.37612 2.00772 1.67771 1.69928C1.97929 1.39085 2.38129 1.20051 2.811 1.16267C3.69933 1.08067 4.89633 1 6.16667 1C7.44367 1 8.64667 1.08133 9.53667 1.164Z" stroke="white" stroke-linecap="round" stroke-linejoin="round"/>
<path d="M10.2406 15H13.9306C14.1859 15.0012 14.4316 14.9033 14.6161 14.727C14.8006 14.5507 14.9095 14.3097 14.92 14.0547C14.9553 13.1587 15 11.7213 15 10.1667C15 8.979 14.948 7.90833 14.8916 7.09933C14.829 6.19267 14.1263 5.48 13.2193 5.417C12.5785 5.37239 11.9366 5.3456 11.2943 5.33667M7.80531 15L7.80731 14.965C7.82165 14.5983 7.83331 14.0727 7.83331 13.3333C7.83331 12.594 7.82165 12.0683 7.80731 11.7017C7.78765 11.2057 7.51065 10.7863 7.01898 10.7183C6.73635 10.682 6.4516 10.6647 6.16665 10.6667C5.8817 10.6647 5.59694 10.682 5.31431 10.7183C4.82265 10.7863 4.54565 11.2057 4.52598 11.7017C4.51165 12.0683 4.49998 12.594 4.49998 13.3333C4.49837 13.889 4.50771 14.4447 4.52798 15M4.33331 4V4.66667M4.33331 7.66667V8.33333M7.99998 4V4.66667M7.99998 7.66667V8.33333" stroke="white" stroke-linecap="round" stroke-linejoin="round"/>
</g>
<defs>
<clipPath id="clip0_255_1499">
<rect width="16" height="16" fill="white"/>
</clipPath>
</defs>
</svg>
