<svg width="24" height="20" viewBox="0 0 24 20" fill="none" xmlns="http://www.w3.org/2000/svg">
<path d="M23.643 2.93708C22.808 3.30708 21.911 3.55708 20.968 3.67008C21.941 3.08787 22.669 2.17154 23.016 1.09208C22.1019 1.63507 21.1014 2.01727 20.058 2.22208C19.3564 1.47294 18.4271 0.976403 17.4143 0.809551C16.4016 0.642699 15.3621 0.814868 14.4572 1.29933C13.5524 1.78379 12.8328 2.55344 12.4102 3.48878C11.9875 4.42412 11.8855 5.47283 12.12 6.47208C10.2677 6.37901 8.45567 5.89754 6.80148 5.0589C5.14728 4.22026 3.6879 3.04319 2.51801 1.60408C2.11801 2.29408 1.88801 3.09408 1.88801 3.94608C1.88757 4.71307 2.07644 5.46832 2.43789 6.14481C2.79934 6.8213 3.32217 7.39812 3.96001 7.82408C3.22031 7.80042 2.49693 7.60055 1.85001 7.24108V7.30108C1.84994 8.37682 2.22204 9.41945 2.90319 10.2521C3.58434 11.0847 4.53258 11.656 5.58701 11.8691C4.90075 12.0545 4.18137 12.0819 3.48301 11.9491C3.78038 12.8748 4.35984 13.6843 5.14024 14.2642C5.92064 14.8441 6.86289 15.1654 7.83501 15.1831C6.18477 16.4784 4.14687 17.181 2.04901 17.1781C1.67743 17.1771 1.30618 17.1554 0.937012 17.1131C3.06708 18.481 5.54555 19.2075 8.07701 19.2061C16.647 19.2061 21.332 12.1081 21.332 5.95208C21.332 5.75141 21.3273 5.55074 21.318 5.35008C22.2289 4.69057 23.0154 3.87457 23.641 2.94008L23.643 2.93708Z" fill="#00AA59"/>
</svg>
