<svg width="16" height="17" viewBox="0 0 16 17" fill="none" xmlns="http://www.w3.org/2000/svg">
<path d="M4.66667 6.50016L7.16667 8.50016C7.40315 8.6895 7.69706 8.79266 8 8.79266C8.30294 8.79266 8.59685 8.6895 8.83333 8.50016L11.3333 6.50016M14 11.8335V5.16683C14 4.81321 13.8595 4.47407 13.6095 4.22402C13.3594 3.97397 13.0203 3.8335 12.6667 3.8335H3.33333C2.97971 3.8335 2.64057 3.97397 2.39052 4.22402C2.14048 4.47407 2 4.81321 2 5.16683V11.8335C2 12.1871 2.14048 12.5263 2.39052 12.7763C2.64057 13.0264 2.97971 13.1668 3.33333 13.1668H12.6667C13.0203 13.1668 13.3594 13.0264 13.6095 12.7763C13.8595 12.5263 14 12.1871 14 11.8335Z" stroke="white" strokeLinecap="round" strokeLinejoin="round"/>
</svg>
