<svg width="24" height="24" viewBox="0 0 24 24" fill="none" xmlns="http://www.w3.org/2000/svg">
<path d="M23.643 4.93708C22.808 5.30708 21.911 5.55708 20.968 5.67008C21.941 5.08787 22.6689 4.17154 23.016 3.09208C22.1018 3.63507 21.1013 4.01727 20.058 4.22208C19.3564 3.47294 18.4271 2.9764 17.4143 2.80955C16.4016 2.6427 15.3621 2.81487 14.4572 3.29933C13.5524 3.78379 12.8328 4.55344 12.4102 5.48878C11.9875 6.42412 11.8855 7.47283 12.12 8.47208C10.2677 8.37901 8.45566 7.89754 6.80146 7.0589C5.14727 6.22026 3.68788 5.04319 2.518 3.60408C2.118 4.29408 1.888 5.09408 1.888 5.94608C1.88755 6.71307 2.07643 7.46832 2.43788 8.14481C2.79932 8.8213 3.32216 9.39812 3.96 9.82408C3.22029 9.80042 2.49691 9.60055 1.85 9.24108V9.30108C1.84992 10.3768 2.22203 11.4195 2.90318 12.2521C3.58433 13.0847 4.53257 13.656 5.587 13.8691C4.90074 14.0545 4.18135 14.0819 3.483 13.9491C3.78036 14.8748 4.35983 15.6843 5.14023 16.2642C5.92063 16.8441 6.86287 17.1654 7.835 17.1831C6.18475 18.4784 4.14686 19.181 2.049 19.1781C1.67741 19.1771 1.30617 19.1554 0.936996 19.1131C3.06706 20.481 5.54554 21.2075 8.077 21.2061C16.647 21.2061 21.332 14.1081 21.332 7.95208C21.332 7.75141 21.3273 7.55074 21.318 7.35008C22.2289 6.69057 23.0154 5.87457 23.641 4.94008L23.643 4.93708Z" fill="white"/>
</svg>
