<svg width="107" height="17" viewBox="0 0 107 17" fill="none" xmlns="http://www.w3.org/2000/svg">
<path d="M6.6 17L3.456 7.928V7.136H6.216V1.904H2.88V17H0.84V0.199999H6.288C7.104 0.199999 7.656 0.335999 7.944 0.607999C8.152 0.816 8.256 1.176 8.256 1.688V7.4C8.256 8.344 7.792 8.816 6.864 8.816H5.784L8.664 17H6.6ZM17.3966 15.176C17.3966 15.88 17.2526 16.36 16.9646 16.616C16.6766 16.872 16.1566 17 15.4046 17H12.0446C11.2126 17 10.6526 16.88 10.3646 16.64C10.1086 16.416 9.98063 15.96 9.98063 15.272V2.072C9.98063 1.336 10.1086 0.839999 10.3646 0.584C10.6366 0.327999 11.1646 0.199999 11.9486 0.199999H15.2846C16.0046 0.199999 16.5086 0.319999 16.7966 0.559999C17.0686 0.799999 17.2046 1.24 17.2046 1.88V5.24H15.1886V1.904H12.0206V15.296H15.3566V10.88H17.3966V15.176ZM23.1304 17H21.5224L18.3544 0.199999H20.3944L21.3544 6.104C21.6904 8.168 22.0184 10.224 22.3384 12.272C22.6264 10.256 22.9464 8.2 23.2984 6.104L24.3064 0.199999H26.2984L23.1304 17ZM29.2941 1.904V7.424H32.7741V9.104H29.2941V15.296H32.9421V17H27.2541V0.199999H32.9421V1.904H29.2941ZM40.4963 17L36.4643 6.512V17H34.4963V0.199999H35.7923L39.9443 10.88V0.199999H41.9123V17H40.4963ZM47.718 1.904V17H45.678V1.904H43.11V0.199999H50.31V1.904H47.718ZM51.5119 17V0.199999H53.5519V17H51.5119ZM59.2944 17H57.6864L54.5184 0.199999H56.5584L57.5184 6.104C57.8544 8.168 58.1824 10.224 58.5024 12.272C58.7904 10.256 59.1104 8.2 59.4624 6.104L60.4704 0.199999H62.4624L59.2944 17ZM65.4581 1.904V7.424H68.9381V9.104H65.4581V15.296H69.1061V17H63.4181V0.199999H69.1061V1.904H65.4581ZM77.5963 15.512C77.5963 15.912 77.4923 16.232 77.2843 16.472C77.0123 16.824 76.5723 17 75.9643 17H72.3643C71.2283 17 70.6603 16.512 70.6603 15.536V11.024H72.7003V15.296H75.6283V11.096L71.0683 6.272C70.7963 5.968 70.6603 5.552 70.6603 5.024V1.544C70.6603 1.176 70.8123 0.863999 71.1163 0.607999C71.4523 0.335999 71.8923 0.199999 72.4363 0.199999H75.8923C77.0283 0.199999 77.5963 0.703999 77.5963 1.712V5.24H75.6043V1.904H72.7003V5.12L76.9963 9.632C77.0603 9.696 77.1163 9.768 77.1643 9.848C77.2443 9.96 77.3163 10.064 77.3803 10.16C77.5243 10.464 77.5963 10.768 77.5963 11.072V15.512ZM83.3634 17V0.199999H85.4034V15.296H89.3634V17H83.3634ZM94.9211 1.904V17H92.8811V1.904H90.3131V0.199999H97.5131V1.904H94.9211ZM106.131 14.312C106.131 15.144 105.851 15.808 105.291 16.304C104.779 16.768 104.131 17 103.347 17H98.715V0.199999H103.275C105.179 0.199999 106.131 1.2 106.131 3.2V14.312ZM104.091 2.864C104.091 2.224 103.803 1.904 103.227 1.904H100.755V15.296H103.059C103.747 15.296 104.091 15.008 104.091 14.432V2.864Z" fill="white"/>
</svg>
