<svg width="16" height="17" viewBox="0 0 16 17" fill="none" xmlns="http://www.w3.org/2000/svg">
<path d="M4.66667 6.49998L7.16667 8.49998C7.40315 8.68932 7.69706 8.79248 8 8.79248C8.30294 8.79248 8.59685 8.68932 8.83333 8.49998L11.3333 6.49998M14 11.8333V5.16665C14 4.81302 13.8595 4.47389 13.6095 4.22384C13.3594 3.97379 13.0203 3.83331 12.6667 3.83331H3.33333C2.97971 3.83331 2.64057 3.97379 2.39052 4.22384C2.14048 4.47389 2 4.81302 2 5.16665V11.8333C2 12.1869 2.14048 12.5261 2.39052 12.7761C2.64057 13.0262 2.97971 13.1666 3.33333 13.1666H12.6667C13.0203 13.1666 13.3594 13.0262 13.6095 12.7761C13.8595 12.5261 14 12.1869 14 11.8333Z" stroke="#111111" stroke-linecap="round" stroke-linejoin="round"/>
</svg>
