<svg width="16" height="17" viewBox="0 0 16 17" fill="none" xmlns="http://www.w3.org/2000/svg">
<path d="M7 12.5C6.86739 12.5 6.74021 12.5527 6.64645 12.6464C6.55268 12.7402 6.5 12.8674 6.5 13C6.5 13.1326 6.55268 13.2598 6.64645 13.3536C6.74021 13.4473 6.86739 13.5 7 13.5H9C9.13261 13.5 9.25979 13.4473 9.35355 13.3536C9.44732 13.2598 9.5 13.1326 9.5 13C9.5 12.8674 9.44732 12.7402 9.35355 12.6464C9.25979 12.5527 9.13261 12.5 9 12.5H7ZM5.75 1.5C5.28587 1.5 4.84075 1.68437 4.51256 2.01256C4.18437 2.34075 4 2.78587 4 3.25V13.75C4 14.716 4.784 15.5 5.75 15.5H10.25C10.7141 15.5 11.1592 15.3156 11.4874 14.9874C11.8156 14.6592 12 14.2141 12 13.75V3.25C12 2.78587 11.8156 2.34075 11.4874 2.01256C11.1592 1.68437 10.7141 1.5 10.25 1.5H5.75ZM5 3.25C5 3.05109 5.07902 2.86032 5.21967 2.71967C5.36032 2.57902 5.55109 2.5 5.75 2.5H10.25C10.4489 2.5 10.6397 2.57902 10.7803 2.71967C10.921 2.86032 11 3.05109 11 3.25V13.75C11 13.9489 10.921 14.1397 10.7803 14.2803C10.6397 14.421 10.4489 14.5 10.25 14.5H5.75C5.55109 14.5 5.36032 14.421 5.21967 14.2803C5.07902 14.1397 5 13.9489 5 13.75V3.25Z" fill="#111111"/>
</svg>
