<svg width="24" height="24" viewBox="0 0 24 24" fill="none" xmlns="http://www.w3.org/2000/svg">
<path d="M23.643 4.93695C22.808 5.30695 21.911 5.55696 20.968 5.66996C21.941 5.08775 22.669 4.17142 23.016 3.09195C22.1019 3.63494 21.1014 4.01715 20.058 4.22196C19.3564 3.47282 18.4271 2.97628 17.4143 2.80943C16.4016 2.64258 15.3621 2.81475 14.4572 3.29921C13.5524 3.78367 12.8328 4.55332 12.4102 5.48866C11.9875 6.424 11.8855 7.4727 12.12 8.47195C10.2677 8.37889 8.45567 7.89741 6.80148 7.05877C5.14728 6.22014 3.6879 5.04307 2.51801 3.60396C2.11801 4.29396 1.88801 5.09396 1.88801 5.94596C1.88757 6.71295 2.07644 7.4682 2.43789 8.14469C2.79934 8.82118 3.32217 9.39799 3.96001 9.82396C3.22031 9.8003 2.49693 9.60043 1.85001 9.24095V9.30095C1.84994 10.3767 2.22204 11.4193 2.90319 12.252C3.58434 13.0846 4.53258 13.6559 5.58701 13.869C4.90075 14.0544 4.18137 14.0817 3.48301 13.949C3.78038 14.8746 4.35984 15.6841 5.14024 16.2641C5.92064 16.844 6.86289 17.1653 7.83501 17.183C6.18477 18.4782 4.14687 19.1809 2.04901 19.178C1.67743 19.177 1.30618 19.1553 0.937012 19.113C3.06708 20.4808 5.54555 21.2074 8.07701 21.206C16.647 21.206 21.332 14.108 21.332 7.95195C21.332 7.75129 21.3273 7.55062 21.318 7.34995C22.2289 6.69045 23.0154 5.87445 23.641 4.93995L23.643 4.93695Z" fill="#111111"/>
</svg>
